<svg width="32" height="33" viewBox="0 0 32 33" fill="none" xmlns="http://www.w3.org/2000/svg">
<path d="M28.9088 20.2687L24.8873 17.6375L26.4357 14.7989C26.8092 14.0901 27.0048 13.3012 27.0058 12.5V8C27.0089 6.73469 26.6425 5.49602 25.9514 4.43609C25.2604 3.37615 24.2748 2.5411 23.1158 2.03346C21.9568 1.52582 20.6748 1.36771 19.4272 1.57852C18.1795 1.78934 17.0206 2.35992 16.0928 3.22019L17.452 4.6875C18.095 4.09304 18.8974 3.69911 19.7609 3.554C20.6244 3.40889 21.5115 3.51891 22.3135 3.87057C23.1154 4.22223 23.7973 4.80024 24.2755 5.53375C24.7538 6.26725 25.0076 7.12436 25.0058 8V12.5C25.0056 12.9665 24.8939 13.4262 24.6799 13.8407L22.2476 18.3L27.8138 21.9421C28.1812 22.1826 28.4827 22.5111 28.6909 22.8977C28.8991 23.2843 29.0073 23.7168 29.0058 24.1559V27.5H24.5058V29.5H31.0058V24.1559C31.0078 23.3845 30.8171 22.6249 30.4509 21.9461C30.0846 21.2672 29.5546 20.6906 28.9088 20.2687Z" fill="#343B3F"/>
<path d="M19.9088 22.2688L15.8874 19.6375L17.4357 16.7989C17.8091 16.0901 18.0048 15.3012 18.0058 14.5V10C18.0045 8.27515 17.3191 6.62123 16.0999 5.4011C14.8807 4.18097 13.2274 3.49426 11.5025 3.49163C7.92019 3.49163 5.00581 6.41131 5.00581 10V14.5C5.002 15.3008 5.19551 16.0902 5.56925 16.7984L7.126 19.6524L3.12794 22.2688C2.48294 22.69 1.95335 23.2656 1.5872 23.9434C1.22106 24.6212 1.02996 25.3796 1.03125 26.15L1 31.5H22.0058V26.1559C22.0078 25.3845 21.8171 24.6249 21.4508 23.9461C21.0846 23.2672 20.5545 22.6906 19.9088 22.2688ZM20.0058 29.5H3.01163L3.031 26.1559C3.02949 25.7168 3.13775 25.2842 3.34593 24.8976C3.55412 24.511 3.85563 24.1825 4.22306 23.9421L9.76569 20.3153L7.325 15.8408C7.11342 15.4256 7.00399 14.966 7.00581 14.5V10C7.00581 8.80653 7.47992 7.66193 8.32383 6.81802C9.16775 5.97411 10.3123 5.5 11.5058 5.5C12.6993 5.5 13.8439 5.97411 14.6878 6.81802C15.5317 7.66193 16.0058 8.80653 16.0058 10V14.5C16.0056 14.9665 15.8939 15.4262 15.6799 15.8408L13.2476 20.3L18.8137 23.9421C19.1812 24.1826 19.4827 24.5111 19.6909 24.8977C19.899 25.2843 20.0073 25.7168 20.0058 26.1559V29.5Z" fill="#343B3F"/>
</svg>
