<svg width="31" height="26" viewBox="0 0 31 26" fill="none" xmlns="http://www.w3.org/2000/svg">
<path d="M5.66659 9.5C6.02021 9.5 6.35935 9.64048 6.60939 9.89053C6.85944 10.1406 6.99992 10.4797 6.99992 10.8333C9.09477 10.8302 11.1292 11.535 12.7733 12.8333H15.6666C17.4439 12.8333 19.0399 13.6067 20.1386 14.8333H24.3333C25.5936 14.833 26.8282 15.1899 27.894 15.8627C28.9597 16.5355 29.8129 17.4967 30.3546 18.6347C27.2013 22.796 22.0959 25.5 16.3333 25.5C12.6133 25.5 9.46659 24.696 6.91992 23.2893C6.82664 23.5467 6.65624 23.7691 6.43194 23.9261C6.20764 24.0831 5.94037 24.1671 5.66659 24.1667H1.66659C1.31296 24.1667 0.973825 24.0262 0.723776 23.7761C0.473728 23.5261 0.333252 23.187 0.333252 22.8333V10.8333C0.333252 10.4797 0.473728 10.1406 0.723776 9.89053C0.973825 9.64048 1.31296 9.5 1.66659 9.5H5.66659ZM7.00125 13.5L6.99992 20.196L7.05992 20.2387C9.45325 21.9187 12.5706 22.8333 16.3333 22.8333C20.3386 22.8333 24.0653 21.292 26.7799 18.66L26.9573 18.4827L26.7973 18.3493C26.1677 17.8562 25.4045 17.5636 24.6066 17.5093L24.3333 17.5H21.5186C21.6146 17.9293 21.6666 18.3747 21.6666 18.8333V20.1667H9.66659V17.5L18.7199 17.4987L18.6746 17.3947C18.4191 16.8607 18.026 16.4044 17.5358 16.0726C17.0456 15.7408 16.4759 15.5455 15.8853 15.5067L15.6666 15.5H11.7599C11.1403 14.8663 10.4003 14.3629 9.58328 14.0194C8.76628 13.676 7.88884 13.4994 7.00259 13.5H7.00125ZM4.33325 12.1667H2.99992V21.5H4.33325V12.1667ZM22.9999 4.16667C24.0608 4.16667 25.0782 4.5881 25.8283 5.33824C26.5785 6.08839 26.9999 7.1058 26.9999 8.16667C26.9999 9.22753 26.5785 10.245 25.8283 10.9951C25.0782 11.7452 24.0608 12.1667 22.9999 12.1667C21.9391 12.1667 20.9216 11.7452 20.1715 10.9951C19.4213 10.245 18.9999 9.22753 18.9999 8.16667C18.9999 7.1058 19.4213 6.08839 20.1715 5.33824C20.9216 4.5881 21.9391 4.16667 22.9999 4.16667ZM22.9999 6.83333C22.6463 6.83333 22.3072 6.97381 22.0571 7.22386C21.8071 7.47391 21.6666 7.81305 21.6666 8.16667C21.6666 8.52029 21.8071 8.85943 22.0571 9.10948C22.3072 9.35953 22.6463 9.5 22.9999 9.5C23.3535 9.5 23.6927 9.35953 23.9427 9.10948C24.1928 8.85943 24.3333 8.52029 24.3333 8.16667C24.3333 7.81305 24.1928 7.47391 23.9427 7.22386C23.6927 6.97381 23.3535 6.83333 22.9999 6.83333ZM13.6666 0.166668C14.7275 0.166668 15.7449 0.588095 16.495 1.33824C17.2452 2.08839 17.6666 3.1058 17.6666 4.16667C17.6666 5.22753 17.2452 6.24495 16.495 6.9951C15.7449 7.74524 14.7275 8.16667 13.6666 8.16667C12.6057 8.16667 11.5883 7.74524 10.8382 6.9951C10.088 6.24495 9.66659 5.22753 9.66659 4.16667C9.66659 3.1058 10.088 2.08839 10.8382 1.33824C11.5883 0.588095 12.6057 0.166668 13.6666 0.166668ZM13.6666 2.83333C13.313 2.83333 12.9738 2.97381 12.7238 3.22386C12.4737 3.47391 12.3333 3.81305 12.3333 4.16667C12.3333 4.52029 12.4737 4.85943 12.7238 5.10948C12.9738 5.35953 13.313 5.5 13.6666 5.5C14.0202 5.5 14.3593 5.35953 14.6094 5.10948C14.8594 4.85943 14.9999 4.52029 14.9999 4.16667C14.9999 3.81305 14.8594 3.47391 14.6094 3.22386C14.3593 2.97381 14.0202 2.83333 13.6666 2.83333Z" fill="#343B3F"/>
</svg>
