<svg width="24" height="27" viewBox="0 0 24 27" fill="none" xmlns="http://www.w3.org/2000/svg">
<path d="M3.20005 0.700001C2.56353 0.700001 1.95308 0.952857 1.50299 1.40294C1.05291 1.85303 0.800049 2.46348 0.800049 3.1V23.9C0.800049 24.5365 1.05291 25.147 1.50299 25.5971C1.95308 26.0471 2.56353 26.3 3.20005 26.3H14.4C15.0366 26.3 15.647 26.0471 16.0971 25.5971C16.5472 25.147 16.8 24.5365 16.8 23.9V21.5C16.8 21.2878 16.7158 21.0843 16.5657 20.9343C16.4157 20.7843 16.2122 20.7 16 20.7C15.3392 20.7 14.9168 20.5368 14.6304 20.3224C14.3376 20.1032 14.1152 19.7752 13.952 19.3256C13.6096 18.3848 13.6 17.1384 13.6 15.9C13.6 15.7948 13.5792 15.6906 13.5389 15.5934C13.4985 15.4962 13.4394 15.4079 13.3648 15.3336L12.9072 14.8744L10.9664 12.9336C10.2192 12.1864 10 11.6856 9.95845 11.4056C9.92645 11.1816 9.99365 11.0312 10.1536 10.8776C10.496 10.5496 10.7408 10.3272 11.0176 10.26C11.1824 10.2184 11.5584 10.1896 12.2336 10.8648L17.0336 15.6648C17.1837 15.815 17.3872 15.8995 17.5995 15.8996C17.7046 15.8997 17.8087 15.8791 17.9058 15.8389C18.003 15.7988 18.0913 15.7399 18.1656 15.6656C18.24 15.5913 18.2991 15.5031 18.3393 15.406C18.3796 15.309 18.4004 15.2049 18.4005 15.0998C18.4006 14.9946 18.3799 14.8905 18.3398 14.7934C18.2996 14.6963 18.2407 14.608 18.1664 14.5336L16.8 13.1688V8.2312L20.896 12.3272C21.1192 12.55 21.2962 12.8147 21.417 13.1059C21.5378 13.3972 21.6 13.7095 21.6 14.0248V25.5C21.6 25.7122 21.6843 25.9157 21.8344 26.0657C21.9844 26.2157 22.1879 26.3 22.4 26.3C22.6122 26.3 22.8157 26.2157 22.9657 26.0657C23.1158 25.9157 23.2 25.7122 23.2 25.5V14.0248C23.1998 12.9644 22.7786 11.9475 22.0288 11.1976L16.8 5.9688V3.1C16.8 2.46348 16.5472 1.85303 16.0971 1.40294C15.647 0.952857 15.0366 0.700001 14.4 0.700001H3.20005ZM15.2 6.3V11.5688L13.3664 9.7336C12.44 8.8088 11.52 8.4904 10.6384 8.7048C10.4653 8.74754 10.2973 8.80925 10.1376 8.8888C9.42244 8.68162 8.66884 8.64361 7.93642 8.77779C7.20399 8.91197 6.51281 9.21465 5.91749 9.66192C5.32217 10.1092 4.83903 10.6888 4.50625 11.3549C4.17347 12.021 4.00017 12.7554 4.00005 13.5C3.99998 14.4279 4.26887 15.336 4.77418 16.1142C5.27948 16.8925 5.99953 17.5076 6.84717 17.8851C7.69482 18.2626 8.63372 18.3864 9.55023 18.2414C10.4667 18.0963 11.3216 17.6888 12.0112 17.068C12.0384 17.9928 12.1312 19.004 12.448 19.8728C12.6848 20.524 13.0624 21.1464 13.6704 21.6008L13.68 21.6104C13.1928 21.7636 12.7672 22.0683 12.4651 22.4801C12.1629 22.8918 12 23.3893 12 23.9V24.7H5.60005V23.9C5.60005 23.2635 5.34719 22.653 4.89711 22.2029C4.44702 21.7529 3.83657 21.5 3.20005 21.5H2.40005V5.5H3.20005C3.83657 5.5 4.44702 5.24714 4.89711 4.79706C5.34719 4.34697 5.60005 3.73652 5.60005 3.1V2.3H12V3.1C12 3.73652 12.2529 4.34697 12.703 4.79706C13.1531 5.24714 13.7635 5.5 14.4 5.5H15.2V6.3ZM15.2 23.9V23.9144C15.1963 24.1241 15.1103 24.3239 14.9607 24.4708C14.8111 24.6177 14.6098 24.7 14.4 24.7H13.6V23.9C13.6 23.6878 13.6843 23.4843 13.8344 23.3343C13.9844 23.1843 14.1879 23.1 14.4 23.1H15.2V23.9ZM5.60005 13.5C5.60006 12.6862 5.91012 11.903 6.46713 11.3097C7.02415 10.7164 7.78628 10.3577 8.59845 10.3064C8.40005 10.6744 8.29925 11.1224 8.37605 11.6392C8.48965 12.4104 8.98085 13.212 9.83365 14.0648L11.2849 15.516C10.8682 16.0294 10.3028 16.4011 9.66638 16.5801C9.02991 16.7591 8.35363 16.7366 7.7305 16.5156C7.10736 16.2946 6.56798 15.886 6.18648 15.3461C5.80499 14.8061 5.60013 14.1612 5.60005 13.5ZM4.00005 2.3V3.1C4.00005 3.31217 3.91576 3.51566 3.76573 3.66569C3.61571 3.81572 3.41222 3.9 3.20005 3.9H2.40005V3.1C2.40005 2.88783 2.48433 2.68434 2.63436 2.53432C2.78439 2.38429 2.98788 2.3 3.20005 2.3H4.00005ZM2.40005 23.1H3.20005C3.41222 23.1 3.61571 23.1843 3.76573 23.3343C3.91576 23.4843 4.00005 23.6878 4.00005 23.9V24.7H3.20005C2.98788 24.7 2.78439 24.6157 2.63436 24.4657C2.48433 24.3157 2.40005 24.1122 2.40005 23.9V23.1ZM15.2 3.9H14.4C14.1879 3.9 13.9844 3.81572 13.8344 3.66569C13.6843 3.51566 13.6 3.31217 13.6 3.1V2.3H14.4C14.6122 2.3 14.8157 2.38429 14.9657 2.53432C15.1158 2.68434 15.2 2.88783 15.2 3.1V3.9Z" fill="#343B3F"/>
</svg>
